# xmcd
#
# Track frame offsets:
#	183
#	11595
#	21813
#	32610
#	48935
#	61533
#	72883
#	83410
#	96465
#	107145
#	117215
#	131730
#	142080
#	156290
#	168920
#	179918
#	190488
#	201865
#	214353
#	224728
#	239253
#	248783
#
# Disc length: 3469 seconds
#
# Revision: 1
# Processed by: cddbd v1.4PL0 Copyright (c) Steve Scherf et al.
# Submitted via: audiograbber 1.80
#
DISCID=460d8b16
DTITLE=Bobby Bare - Greatest Hits
DYEAR=1900
DGENRE=
TTITLE0=That's how I got to Memphis
TTITLE1=It's freezing in El Paso
TTITLE2=Don't it make you want to go home
TTITLE3=The waitress at main street café
TTITLE4=Rosalie
TTITLE5=Alabama rose
TTITLE6=The world is weighing heavy on my mind
TTITLE7=Mama bake a pie
TTITLE8=Don't you ever get tired of hurting me
TTITLE9=West Virginia woman
TTITLE10=New York city snow
TTITLE11=Jezus is the only one that loves us
TTITLE12=A million miles to the city
TTITLE13=City boy, country born
TTITLE14=Lonely street
TTITLE15=Crazy arms
TTITLE16=Pamela Brown
TTITLE17=When I want to love a lady
TTITLE18=Lorena
TTITLE19=Laying here lying in my bed
TTITLE20=Lord, let a lie come true
TTITLE21=Music city, U.S.A.
EXTD=
EXTT0=
EXTT1=
EXTT2=
EXTT3=
EXTT4=
EXTT5=
EXTT6=
EXTT7=
EXTT8=
EXTT9=
EXTT10=
EXTT11=
EXTT12=
EXTT13=
EXTT14=
EXTT15=
EXTT16=
EXTT17=
EXTT18=
EXTT19=
EXTT20=
EXTT21=
PLAYORDER=
